<svg xmlns="http://www.w3.org/2000/svg" width="24" height="24" viewBox="0 0 24 24"><path fill="gray" fill-rule="evenodd" d="M23.08 16.63l-.06.239c-.089.24-.209.48-.299.719 0 .06-.06.18-.09.24-.958 2.126-2.755 3.144-5.54 3.653-.15.03-.42.09-.689.12-2.695.33-4.731.389-7.427.15-.09 0-.21-.03-.27-.03-3.743-.42-5.959-1.767-7.127-3.924a.573.573 0 0 1-.12-.24c-.12-.209-.21-.478-.3-.688-.059-.12-.089-.18-.119-.27C.65 15.491.5 14.204.5 12.766c0-2.516.779-3.504 1.827-4.852-.809-2.875.33-4.851.33-4.851s1.706-.36 4.94 1.947c1.738-.75 6.38-.81 8.596-.15 1.347-.899 3.833-2.156 4.851-1.797.24.42.809 1.677.33 4.462.33.6 2.126 1.917 2.126 5.6-.03 1.348-.18 2.516-.42 3.504zm-19.615-.87c0 3.325 2.336 4.793 5.6 5.062.21.03.42.03.659.06 1.527.03 3.444.06 5.33 0 .42-.03.84-.06 1.229-.12 3.114-.45 4.402-2.246 4.402-4.762 0-1.826-.839-4.222-4.193-4.222-.24 0-2.216.24-4.103.24-2.126 0-4.312-.24-4.642-.24-3.444 0-4.282 2.725-4.282 3.983zm3.953-1.526c.659 0 1.168.778 1.168 1.736 0 .959-.51 1.737-1.168 1.737-.659 0-1.138-.778-1.138-1.737 0-.958.48-1.736 1.138-1.736zm9.673 3.473c-.689 0-1.198-.778-1.198-1.737 0-.958.51-1.736 1.198-1.736.659 0 1.168.778 1.168 1.736 0 .959-.509 1.737-1.168 1.737zm-4.971.839c-.3 0-.54-.27-.54-.569 0-.27.24-.51.54-.51.3 0 .569.24.569.51 0 .3-.27.569-.57.569zm.03 1.797c-.869 0-1.558-.749-1.558-1.198 0-.18.12-.33.3-.33s.3.15.3.33c.03.09.419.599.958.599.419 0 .808-.36.808-.599 0-.18.15-.33.3-.33.18 0 .33.15.33.33 0 .539-.6 1.198-1.438 1.198z"/></svg>