<svg xmlns="http://www.w3.org/2000/svg" width="24" height="24" viewBox="0 0 24 24"><path fill="gray" fill-rule="evenodd" d="M24 4.313c-.906.406-1.813.687-2.813.812a4.825 4.825 0 0 0 2.125-2.75c-.937.563-1.968 1-3.093 1.219C19.312 2.625 18.03 2 16.594 2c-2.719 0-4.907 2.219-4.907 4.938 0 .375.063.78.126 1.125-4.094-.188-7.72-2.188-10.157-5.157A5.228 5.228 0 0 0 1 5.406c0 1.688.875 3.188 2.188 4.094-.813-.031-1.532-.25-2.22-.594v.063c0 2.375 1.688 4.344 3.97 4.781a4.596 4.596 0 0 1-1.313.188c-.313 0-.656-.032-.938-.094.626 1.937 2.407 3.406 4.594 3.437-1.687 1.313-3.781 2.125-6.093 2.125-.407 0-.813-.062-1.188-.093 2.188 1.375 4.781 2.218 7.563 2.218 9.062 0 14-7.5 14-14 0-.218 0-.437-.032-.656A10.687 10.687 0 0 0 24 4.312z"/></svg>